<svg xmlns="http://www.w3.org/2000/svg" viewBox="0 0 512 512" fill="#2d2d2d">
  <!-- Tooth crown + right root (main body) -->
  <path d="
    M 168 80
    C 140 80, 110 100, 105 140
    C 100 170, 108 200, 125 230
    C 135 250, 140 270, 142 290
    C 144 310, 143 330, 140 350
    C 137 370, 132 390, 128 410
    C 125 425, 124 435, 128 442
    C 132 450, 138 448, 142 440
    C 150 420, 158 395, 165 370
    C 172 345, 182 320, 200 305
    C 218 290, 240 290, 258 295
    C 276 300, 296 320, 310 350
    C 320 370, 332 395, 340 420
    C 345 435, 348 445, 352 448
    C 360 452, 368 445, 370 430
    C 372 415, 370 395, 365 375
    C 358 345, 350 315, 348 285
    C 346 255, 350 230, 360 210
    C 375 180, 390 155, 388 125
    C 385 100, 370 82, 345 78
    C 320 72, 300 95, 280 100
    C 265 105, 255 95, 250 90
    C 240 82, 225 75, 200 75
    C 188 75, 175 78, 168 80
    Z
  "/>
  <!-- White highlight notch at top of crown -->
  <path d="
    M 248 88
    C 252 82, 258 80, 264 84
    C 268 88, 265 95, 258 98
    C 252 100, 247 95, 248 88
    Z
  " fill="white"/>
  <!-- Implant screw threads (white cuts in left root) -->
  <path d="
    M 128 340
    Q 145 332, 162 338
  " fill="none" stroke="white" stroke-width="6" stroke-linecap="round"/>
  <path d="
    M 126 360
    Q 146 350, 168 358
  " fill="none" stroke="white" stroke-width="6" stroke-linecap="round"/>
  <path d="
    M 124 380
    Q 146 368, 170 378
  " fill="none" stroke="white" stroke-width="6" stroke-linecap="round"/>
  <path d="
    M 124 400
    Q 148 388, 168 398
  " fill="none" stroke="white" stroke-width="6" stroke-linecap="round"/>
  <path d="
    M 126 418
    Q 146 408, 162 416
  " fill="none" stroke="white" stroke-width="6" stroke-linecap="round"/>
</svg>
